<svg xmlns="http://www.w3.org/2000/svg" viewBox="0 0 1200 80" width="1200" height="80" preserveAspectRatio="none">
  <path d="M 0 40
           L 30 38 L 50 52 L 70 28 L 95 48 L 120 32 L 140 60 L 160 22
           L 185 50 L 210 30 L 232 58 L 256 24 L 282 54 L 308 28 L 332 62 L 360 30
           L 386 50 L 412 24 L 440 58 L 468 32 L 494 56 L 520 26 L 548 60 L 576 28
           L 604 52 L 630 22 L 658 56 L 684 32 L 712 60 L 738 24 L 766 54 L 794 28
           L 822 58 L 848 30 L 876 52 L 904 22 L 932 60 L 960 32 L 988 54 L 1016 26
           L 1044 58 L 1072 30 L 1100 52 L 1128 24 L 1156 56 L 1184 32 L 1200 40" fill="none" stroke="#A89F92" stroke-width="1" stroke-linejoin="round" stroke-linecap="round"></path>
</svg>
